<svg xmlns="http://www.w3.org/2000/svg" viewBox="0 0 24 24" fill="#1d1d1f"><path d="M17.05 12.04c-.03-2.78 2.28-4.12 2.39-4.18-1.31-1.91-3.34-2.17-4.06-2.2-1.72-.18-3.36 1.02-4.24 1.02-.89 0-2.23-1-3.67-.97-1.88.03-3.62 1.1-4.59 2.79-1.96 3.4-.5 8.42 1.4 11.18.93 1.35 2.04 2.86 3.48 2.81 1.4-.06 1.93-.91 3.62-.91 1.7 0 2.17.91 3.66.88 1.51-.03 2.47-1.37 3.39-2.73 1.07-1.57 1.51-3.1 1.54-3.18-.03-.01-2.95-1.13-2.98-4.49zm-2.81-8.25c.77-.94 1.29-2.24 1.15-3.54-1.11.04-2.46.74-3.26 1.67-.71.83-1.34 2.16-1.17 3.43 1.24.1 2.51-.63 3.28-1.56z"/></svg>
